<svg xmlns="http://www.w3.org/2000/svg" xmlns:xlink="http://www.w3.org/1999/xlink" width="293.856" height="268.109" viewBox="0 0 293.856 268.109">
  <defs>
    <clipPath id="clip-path">
      <rect width="303.887" height="95" fill="none"/>
    </clipPath>
  </defs>
  <g id="Repeat_Grid_4" data-name="Repeat Grid 4" transform="translate(61.065) rotate(40)" opacity="0.243" clip-path="url(#clip-path)">
    <g transform="translate(-225 -12)">
      <circle id="Ellipse_15" data-name="Ellipse 15" cx="4" cy="4" r="4" transform="translate(257 12)" fill="#0f0f0f" opacity="0.16"/>
      <circle id="Ellipse_17" data-name="Ellipse 17" cx="4" cy="4" r="4" transform="translate(241 12)" fill="#0f0f0f" opacity="0.16"/>
      <circle id="Ellipse_16" data-name="Ellipse 16" cx="4" cy="4" r="4" transform="translate(225 12)" fill="#0f0f0f" opacity="0.16"/>
    </g>
    <g transform="translate(-177 -12)">
      <circle id="Ellipse_15-2" data-name="Ellipse 15" cx="4" cy="4" r="4" transform="translate(257 12)" fill="#0f0f0f" opacity="0.16"/>
      <circle id="Ellipse_17-2" data-name="Ellipse 17" cx="4" cy="4" r="4" transform="translate(241 12)" fill="#0f0f0f" opacity="0.16"/>
      <circle id="Ellipse_16-2" data-name="Ellipse 16" cx="4" cy="4" r="4" transform="translate(225 12)" fill="#0f0f0f" opacity="0.16"/>
    </g>
    <g transform="translate(-129 -12)">
      <circle id="Ellipse_15-3" data-name="Ellipse 15" cx="4" cy="4" r="4" transform="translate(257 12)" fill="#0f0f0f" opacity="0.16"/>
      <circle id="Ellipse_17-3" data-name="Ellipse 17" cx="4" cy="4" r="4" transform="translate(241 12)" fill="#0f0f0f" opacity="0.16"/>
      <circle id="Ellipse_16-3" data-name="Ellipse 16" cx="4" cy="4" r="4" transform="translate(225 12)" fill="#0f0f0f" opacity="0.16"/>
    </g>
    <g transform="translate(-81 -12)">
      <circle id="Ellipse_15-4" data-name="Ellipse 15" cx="4" cy="4" r="4" transform="translate(257 12)" fill="#0f0f0f" opacity="0.16"/>
      <circle id="Ellipse_17-4" data-name="Ellipse 17" cx="4" cy="4" r="4" transform="translate(241 12)" fill="#0f0f0f" opacity="0.16"/>
      <circle id="Ellipse_16-4" data-name="Ellipse 16" cx="4" cy="4" r="4" transform="translate(225 12)" fill="#0f0f0f" opacity="0.16"/>
    </g>
    <g transform="translate(-33 -12)">
      <circle id="Ellipse_15-5" data-name="Ellipse 15" cx="4" cy="4" r="4" transform="translate(257 12)" fill="#0f0f0f" opacity="0.16"/>
      <circle id="Ellipse_17-5" data-name="Ellipse 17" cx="4" cy="4" r="4" transform="translate(241 12)" fill="#0f0f0f" opacity="0.16"/>
      <circle id="Ellipse_16-5" data-name="Ellipse 16" cx="4" cy="4" r="4" transform="translate(225 12)" fill="#0f0f0f" opacity="0.16"/>
    </g>
    <g transform="translate(15 -12)">
      <circle id="Ellipse_15-6" data-name="Ellipse 15" cx="4" cy="4" r="4" transform="translate(257 12)" fill="#0f0f0f" opacity="0.16"/>
      <circle id="Ellipse_17-6" data-name="Ellipse 17" cx="4" cy="4" r="4" transform="translate(241 12)" fill="#0f0f0f" opacity="0.16"/>
      <circle id="Ellipse_16-6" data-name="Ellipse 16" cx="4" cy="4" r="4" transform="translate(225 12)" fill="#0f0f0f" opacity="0.16"/>
    </g>
    <g transform="translate(63 -12)">
      <circle id="Ellipse_15-7" data-name="Ellipse 15" cx="4" cy="4" r="4" transform="translate(257 12)" fill="#0f0f0f" opacity="0.16"/>
      <circle id="Ellipse_17-7" data-name="Ellipse 17" cx="4" cy="4" r="4" transform="translate(241 12)" fill="#0f0f0f" opacity="0.16"/>
      <circle id="Ellipse_16-7" data-name="Ellipse 16" cx="4" cy="4" r="4" transform="translate(225 12)" fill="#0f0f0f" opacity="0.16"/>
    </g>
    <g transform="translate(-225 2)">
      <circle id="Ellipse_15-8" data-name="Ellipse 15" cx="4" cy="4" r="4" transform="translate(257 12)" fill="#0f0f0f" opacity="0.16"/>
      <circle id="Ellipse_17-8" data-name="Ellipse 17" cx="4" cy="4" r="4" transform="translate(241 12)" fill="#0f0f0f" opacity="0.16"/>
      <circle id="Ellipse_16-8" data-name="Ellipse 16" cx="4" cy="4" r="4" transform="translate(225 12)" fill="#0f0f0f" opacity="0.16"/>
    </g>
    <g transform="translate(-177 2)">
      <circle id="Ellipse_15-9" data-name="Ellipse 15" cx="4" cy="4" r="4" transform="translate(257 12)" fill="#0f0f0f" opacity="0.16"/>
      <circle id="Ellipse_17-9" data-name="Ellipse 17" cx="4" cy="4" r="4" transform="translate(241 12)" fill="#0f0f0f" opacity="0.16"/>
      <circle id="Ellipse_16-9" data-name="Ellipse 16" cx="4" cy="4" r="4" transform="translate(225 12)" fill="#0f0f0f" opacity="0.16"/>
    </g>
    <g transform="translate(-129 2)">
      <circle id="Ellipse_15-10" data-name="Ellipse 15" cx="4" cy="4" r="4" transform="translate(257 12)" fill="#0f0f0f" opacity="0.16"/>
      <circle id="Ellipse_17-10" data-name="Ellipse 17" cx="4" cy="4" r="4" transform="translate(241 12)" fill="#0f0f0f" opacity="0.16"/>
      <circle id="Ellipse_16-10" data-name="Ellipse 16" cx="4" cy="4" r="4" transform="translate(225 12)" fill="#0f0f0f" opacity="0.16"/>
    </g>
    <g transform="translate(-81 2)">
      <circle id="Ellipse_15-11" data-name="Ellipse 15" cx="4" cy="4" r="4" transform="translate(257 12)" fill="#0f0f0f" opacity="0.16"/>
      <circle id="Ellipse_17-11" data-name="Ellipse 17" cx="4" cy="4" r="4" transform="translate(241 12)" fill="#0f0f0f" opacity="0.16"/>
      <circle id="Ellipse_16-11" data-name="Ellipse 16" cx="4" cy="4" r="4" transform="translate(225 12)" fill="#0f0f0f" opacity="0.16"/>
    </g>
    <g transform="translate(-33 2)">
      <circle id="Ellipse_15-12" data-name="Ellipse 15" cx="4" cy="4" r="4" transform="translate(257 12)" fill="#0f0f0f" opacity="0.16"/>
      <circle id="Ellipse_17-12" data-name="Ellipse 17" cx="4" cy="4" r="4" transform="translate(241 12)" fill="#0f0f0f" opacity="0.16"/>
      <circle id="Ellipse_16-12" data-name="Ellipse 16" cx="4" cy="4" r="4" transform="translate(225 12)" fill="#0f0f0f" opacity="0.16"/>
    </g>
    <g transform="translate(15 2)">
      <circle id="Ellipse_15-13" data-name="Ellipse 15" cx="4" cy="4" r="4" transform="translate(257 12)" fill="#0f0f0f" opacity="0.16"/>
      <circle id="Ellipse_17-13" data-name="Ellipse 17" cx="4" cy="4" r="4" transform="translate(241 12)" fill="#0f0f0f" opacity="0.16"/>
      <circle id="Ellipse_16-13" data-name="Ellipse 16" cx="4" cy="4" r="4" transform="translate(225 12)" fill="#0f0f0f" opacity="0.16"/>
    </g>
    <g transform="translate(63 2)">
      <circle id="Ellipse_15-14" data-name="Ellipse 15" cx="4" cy="4" r="4" transform="translate(257 12)" fill="#0f0f0f" opacity="0.16"/>
      <circle id="Ellipse_17-14" data-name="Ellipse 17" cx="4" cy="4" r="4" transform="translate(241 12)" fill="#0f0f0f" opacity="0.16"/>
      <circle id="Ellipse_16-14" data-name="Ellipse 16" cx="4" cy="4" r="4" transform="translate(225 12)" fill="#0f0f0f" opacity="0.16"/>
    </g>
    <g transform="translate(-225 16)">
      <circle id="Ellipse_15-15" data-name="Ellipse 15" cx="4" cy="4" r="4" transform="translate(257 12)" fill="#0f0f0f" opacity="0.16"/>
      <circle id="Ellipse_17-15" data-name="Ellipse 17" cx="4" cy="4" r="4" transform="translate(241 12)" fill="#0f0f0f" opacity="0.16"/>
      <circle id="Ellipse_16-15" data-name="Ellipse 16" cx="4" cy="4" r="4" transform="translate(225 12)" fill="#0f0f0f" opacity="0.16"/>
    </g>
    <g transform="translate(-177 16)">
      <circle id="Ellipse_15-16" data-name="Ellipse 15" cx="4" cy="4" r="4" transform="translate(257 12)" fill="#0f0f0f" opacity="0.16"/>
      <circle id="Ellipse_17-16" data-name="Ellipse 17" cx="4" cy="4" r="4" transform="translate(241 12)" fill="#0f0f0f" opacity="0.16"/>
      <circle id="Ellipse_16-16" data-name="Ellipse 16" cx="4" cy="4" r="4" transform="translate(225 12)" fill="#0f0f0f" opacity="0.16"/>
    </g>
    <g transform="translate(-129 16)">
      <circle id="Ellipse_15-17" data-name="Ellipse 15" cx="4" cy="4" r="4" transform="translate(257 12)" fill="#0f0f0f" opacity="0.16"/>
      <circle id="Ellipse_17-17" data-name="Ellipse 17" cx="4" cy="4" r="4" transform="translate(241 12)" fill="#0f0f0f" opacity="0.16"/>
      <circle id="Ellipse_16-17" data-name="Ellipse 16" cx="4" cy="4" r="4" transform="translate(225 12)" fill="#0f0f0f" opacity="0.16"/>
    </g>
    <g transform="translate(-81 16)">
      <circle id="Ellipse_15-18" data-name="Ellipse 15" cx="4" cy="4" r="4" transform="translate(257 12)" fill="#0f0f0f" opacity="0.16"/>
      <circle id="Ellipse_17-18" data-name="Ellipse 17" cx="4" cy="4" r="4" transform="translate(241 12)" fill="#0f0f0f" opacity="0.16"/>
      <circle id="Ellipse_16-18" data-name="Ellipse 16" cx="4" cy="4" r="4" transform="translate(225 12)" fill="#0f0f0f" opacity="0.16"/>
    </g>
    <g transform="translate(-33 16)">
      <circle id="Ellipse_15-19" data-name="Ellipse 15" cx="4" cy="4" r="4" transform="translate(257 12)" fill="#0f0f0f" opacity="0.16"/>
      <circle id="Ellipse_17-19" data-name="Ellipse 17" cx="4" cy="4" r="4" transform="translate(241 12)" fill="#0f0f0f" opacity="0.16"/>
      <circle id="Ellipse_16-19" data-name="Ellipse 16" cx="4" cy="4" r="4" transform="translate(225 12)" fill="#0f0f0f" opacity="0.16"/>
    </g>
    <g transform="translate(15 16)">
      <circle id="Ellipse_15-20" data-name="Ellipse 15" cx="4" cy="4" r="4" transform="translate(257 12)" fill="#0f0f0f" opacity="0.16"/>
      <circle id="Ellipse_17-20" data-name="Ellipse 17" cx="4" cy="4" r="4" transform="translate(241 12)" fill="#0f0f0f" opacity="0.16"/>
      <circle id="Ellipse_16-20" data-name="Ellipse 16" cx="4" cy="4" r="4" transform="translate(225 12)" fill="#0f0f0f" opacity="0.16"/>
    </g>
    <g transform="translate(63 16)">
      <circle id="Ellipse_15-21" data-name="Ellipse 15" cx="4" cy="4" r="4" transform="translate(257 12)" fill="#0f0f0f" opacity="0.16"/>
      <circle id="Ellipse_17-21" data-name="Ellipse 17" cx="4" cy="4" r="4" transform="translate(241 12)" fill="#0f0f0f" opacity="0.16"/>
      <circle id="Ellipse_16-21" data-name="Ellipse 16" cx="4" cy="4" r="4" transform="translate(225 12)" fill="#0f0f0f" opacity="0.16"/>
    </g>
    <g transform="translate(-225 30)">
      <circle id="Ellipse_15-22" data-name="Ellipse 15" cx="4" cy="4" r="4" transform="translate(257 12)" fill="#0f0f0f" opacity="0.16"/>
      <circle id="Ellipse_17-22" data-name="Ellipse 17" cx="4" cy="4" r="4" transform="translate(241 12)" fill="#0f0f0f" opacity="0.16"/>
      <circle id="Ellipse_16-22" data-name="Ellipse 16" cx="4" cy="4" r="4" transform="translate(225 12)" fill="#0f0f0f" opacity="0.16"/>
    </g>
    <g transform="translate(-177 30)">
      <circle id="Ellipse_15-23" data-name="Ellipse 15" cx="4" cy="4" r="4" transform="translate(257 12)" fill="#0f0f0f" opacity="0.16"/>
      <circle id="Ellipse_17-23" data-name="Ellipse 17" cx="4" cy="4" r="4" transform="translate(241 12)" fill="#0f0f0f" opacity="0.16"/>
      <circle id="Ellipse_16-23" data-name="Ellipse 16" cx="4" cy="4" r="4" transform="translate(225 12)" fill="#0f0f0f" opacity="0.16"/>
    </g>
    <g transform="translate(-129 30)">
      <circle id="Ellipse_15-24" data-name="Ellipse 15" cx="4" cy="4" r="4" transform="translate(257 12)" fill="#0f0f0f" opacity="0.16"/>
      <circle id="Ellipse_17-24" data-name="Ellipse 17" cx="4" cy="4" r="4" transform="translate(241 12)" fill="#0f0f0f" opacity="0.16"/>
      <circle id="Ellipse_16-24" data-name="Ellipse 16" cx="4" cy="4" r="4" transform="translate(225 12)" fill="#0f0f0f" opacity="0.16"/>
    </g>
    <g transform="translate(-81 30)">
      <circle id="Ellipse_15-25" data-name="Ellipse 15" cx="4" cy="4" r="4" transform="translate(257 12)" fill="#0f0f0f" opacity="0.16"/>
      <circle id="Ellipse_17-25" data-name="Ellipse 17" cx="4" cy="4" r="4" transform="translate(241 12)" fill="#0f0f0f" opacity="0.16"/>
      <circle id="Ellipse_16-25" data-name="Ellipse 16" cx="4" cy="4" r="4" transform="translate(225 12)" fill="#0f0f0f" opacity="0.16"/>
    </g>
    <g transform="translate(-33 30)">
      <circle id="Ellipse_15-26" data-name="Ellipse 15" cx="4" cy="4" r="4" transform="translate(257 12)" fill="#0f0f0f" opacity="0.16"/>
      <circle id="Ellipse_17-26" data-name="Ellipse 17" cx="4" cy="4" r="4" transform="translate(241 12)" fill="#0f0f0f" opacity="0.16"/>
      <circle id="Ellipse_16-26" data-name="Ellipse 16" cx="4" cy="4" r="4" transform="translate(225 12)" fill="#0f0f0f" opacity="0.16"/>
    </g>
    <g transform="translate(15 30)">
      <circle id="Ellipse_15-27" data-name="Ellipse 15" cx="4" cy="4" r="4" transform="translate(257 12)" fill="#0f0f0f" opacity="0.16"/>
      <circle id="Ellipse_17-27" data-name="Ellipse 17" cx="4" cy="4" r="4" transform="translate(241 12)" fill="#0f0f0f" opacity="0.16"/>
      <circle id="Ellipse_16-27" data-name="Ellipse 16" cx="4" cy="4" r="4" transform="translate(225 12)" fill="#0f0f0f" opacity="0.16"/>
    </g>
    <g transform="translate(63 30)">
      <circle id="Ellipse_15-28" data-name="Ellipse 15" cx="4" cy="4" r="4" transform="translate(257 12)" fill="#0f0f0f" opacity="0.16"/>
      <circle id="Ellipse_17-28" data-name="Ellipse 17" cx="4" cy="4" r="4" transform="translate(241 12)" fill="#0f0f0f" opacity="0.16"/>
      <circle id="Ellipse_16-28" data-name="Ellipse 16" cx="4" cy="4" r="4" transform="translate(225 12)" fill="#0f0f0f" opacity="0.16"/>
    </g>
    <g transform="translate(-225 44)">
      <circle id="Ellipse_15-29" data-name="Ellipse 15" cx="4" cy="4" r="4" transform="translate(257 12)" fill="#0f0f0f" opacity="0.16"/>
      <circle id="Ellipse_17-29" data-name="Ellipse 17" cx="4" cy="4" r="4" transform="translate(241 12)" fill="#0f0f0f" opacity="0.16"/>
      <circle id="Ellipse_16-29" data-name="Ellipse 16" cx="4" cy="4" r="4" transform="translate(225 12)" fill="#0f0f0f" opacity="0.16"/>
    </g>
    <g transform="translate(-177 44)">
      <circle id="Ellipse_15-30" data-name="Ellipse 15" cx="4" cy="4" r="4" transform="translate(257 12)" fill="#0f0f0f" opacity="0.16"/>
      <circle id="Ellipse_17-30" data-name="Ellipse 17" cx="4" cy="4" r="4" transform="translate(241 12)" fill="#0f0f0f" opacity="0.16"/>
      <circle id="Ellipse_16-30" data-name="Ellipse 16" cx="4" cy="4" r="4" transform="translate(225 12)" fill="#0f0f0f" opacity="0.16"/>
    </g>
    <g transform="translate(-129 44)">
      <circle id="Ellipse_15-31" data-name="Ellipse 15" cx="4" cy="4" r="4" transform="translate(257 12)" fill="#0f0f0f" opacity="0.16"/>
      <circle id="Ellipse_17-31" data-name="Ellipse 17" cx="4" cy="4" r="4" transform="translate(241 12)" fill="#0f0f0f" opacity="0.16"/>
      <circle id="Ellipse_16-31" data-name="Ellipse 16" cx="4" cy="4" r="4" transform="translate(225 12)" fill="#0f0f0f" opacity="0.16"/>
    </g>
    <g transform="translate(-81 44)">
      <circle id="Ellipse_15-32" data-name="Ellipse 15" cx="4" cy="4" r="4" transform="translate(257 12)" fill="#0f0f0f" opacity="0.16"/>
      <circle id="Ellipse_17-32" data-name="Ellipse 17" cx="4" cy="4" r="4" transform="translate(241 12)" fill="#0f0f0f" opacity="0.16"/>
      <circle id="Ellipse_16-32" data-name="Ellipse 16" cx="4" cy="4" r="4" transform="translate(225 12)" fill="#0f0f0f" opacity="0.16"/>
    </g>
    <g transform="translate(-33 44)">
      <circle id="Ellipse_15-33" data-name="Ellipse 15" cx="4" cy="4" r="4" transform="translate(257 12)" fill="#0f0f0f" opacity="0.16"/>
      <circle id="Ellipse_17-33" data-name="Ellipse 17" cx="4" cy="4" r="4" transform="translate(241 12)" fill="#0f0f0f" opacity="0.16"/>
      <circle id="Ellipse_16-33" data-name="Ellipse 16" cx="4" cy="4" r="4" transform="translate(225 12)" fill="#0f0f0f" opacity="0.16"/>
    </g>
    <g transform="translate(15 44)">
      <circle id="Ellipse_15-34" data-name="Ellipse 15" cx="4" cy="4" r="4" transform="translate(257 12)" fill="#0f0f0f" opacity="0.16"/>
      <circle id="Ellipse_17-34" data-name="Ellipse 17" cx="4" cy="4" r="4" transform="translate(241 12)" fill="#0f0f0f" opacity="0.16"/>
      <circle id="Ellipse_16-34" data-name="Ellipse 16" cx="4" cy="4" r="4" transform="translate(225 12)" fill="#0f0f0f" opacity="0.16"/>
    </g>
    <g transform="translate(63 44)">
      <circle id="Ellipse_15-35" data-name="Ellipse 15" cx="4" cy="4" r="4" transform="translate(257 12)" fill="#0f0f0f" opacity="0.16"/>
      <circle id="Ellipse_17-35" data-name="Ellipse 17" cx="4" cy="4" r="4" transform="translate(241 12)" fill="#0f0f0f" opacity="0.16"/>
      <circle id="Ellipse_16-35" data-name="Ellipse 16" cx="4" cy="4" r="4" transform="translate(225 12)" fill="#0f0f0f" opacity="0.16"/>
    </g>
    <g transform="translate(-225 58)">
      <circle id="Ellipse_15-36" data-name="Ellipse 15" cx="4" cy="4" r="4" transform="translate(257 12)" fill="#0f0f0f" opacity="0.16"/>
      <circle id="Ellipse_17-36" data-name="Ellipse 17" cx="4" cy="4" r="4" transform="translate(241 12)" fill="#0f0f0f" opacity="0.16"/>
      <circle id="Ellipse_16-36" data-name="Ellipse 16" cx="4" cy="4" r="4" transform="translate(225 12)" fill="#0f0f0f" opacity="0.16"/>
    </g>
    <g transform="translate(-177 58)">
      <circle id="Ellipse_15-37" data-name="Ellipse 15" cx="4" cy="4" r="4" transform="translate(257 12)" fill="#0f0f0f" opacity="0.16"/>
      <circle id="Ellipse_17-37" data-name="Ellipse 17" cx="4" cy="4" r="4" transform="translate(241 12)" fill="#0f0f0f" opacity="0.16"/>
      <circle id="Ellipse_16-37" data-name="Ellipse 16" cx="4" cy="4" r="4" transform="translate(225 12)" fill="#0f0f0f" opacity="0.16"/>
    </g>
    <g transform="translate(-129 58)">
      <circle id="Ellipse_15-38" data-name="Ellipse 15" cx="4" cy="4" r="4" transform="translate(257 12)" fill="#0f0f0f" opacity="0.16"/>
      <circle id="Ellipse_17-38" data-name="Ellipse 17" cx="4" cy="4" r="4" transform="translate(241 12)" fill="#0f0f0f" opacity="0.16"/>
      <circle id="Ellipse_16-38" data-name="Ellipse 16" cx="4" cy="4" r="4" transform="translate(225 12)" fill="#0f0f0f" opacity="0.16"/>
    </g>
    <g transform="translate(-81 58)">
      <circle id="Ellipse_15-39" data-name="Ellipse 15" cx="4" cy="4" r="4" transform="translate(257 12)" fill="#0f0f0f" opacity="0.16"/>
      <circle id="Ellipse_17-39" data-name="Ellipse 17" cx="4" cy="4" r="4" transform="translate(241 12)" fill="#0f0f0f" opacity="0.16"/>
      <circle id="Ellipse_16-39" data-name="Ellipse 16" cx="4" cy="4" r="4" transform="translate(225 12)" fill="#0f0f0f" opacity="0.16"/>
    </g>
    <g transform="translate(-33 58)">
      <circle id="Ellipse_15-40" data-name="Ellipse 15" cx="4" cy="4" r="4" transform="translate(257 12)" fill="#0f0f0f" opacity="0.16"/>
      <circle id="Ellipse_17-40" data-name="Ellipse 17" cx="4" cy="4" r="4" transform="translate(241 12)" fill="#0f0f0f" opacity="0.16"/>
      <circle id="Ellipse_16-40" data-name="Ellipse 16" cx="4" cy="4" r="4" transform="translate(225 12)" fill="#0f0f0f" opacity="0.16"/>
    </g>
    <g transform="translate(15 58)">
      <circle id="Ellipse_15-41" data-name="Ellipse 15" cx="4" cy="4" r="4" transform="translate(257 12)" fill="#0f0f0f" opacity="0.16"/>
      <circle id="Ellipse_17-41" data-name="Ellipse 17" cx="4" cy="4" r="4" transform="translate(241 12)" fill="#0f0f0f" opacity="0.16"/>
      <circle id="Ellipse_16-41" data-name="Ellipse 16" cx="4" cy="4" r="4" transform="translate(225 12)" fill="#0f0f0f" opacity="0.16"/>
    </g>
    <g transform="translate(63 58)">
      <circle id="Ellipse_15-42" data-name="Ellipse 15" cx="4" cy="4" r="4" transform="translate(257 12)" fill="#0f0f0f" opacity="0.16"/>
      <circle id="Ellipse_17-42" data-name="Ellipse 17" cx="4" cy="4" r="4" transform="translate(241 12)" fill="#0f0f0f" opacity="0.16"/>
      <circle id="Ellipse_16-42" data-name="Ellipse 16" cx="4" cy="4" r="4" transform="translate(225 12)" fill="#0f0f0f" opacity="0.16"/>
    </g>
    <g transform="translate(-225 72)">
      <circle id="Ellipse_15-43" data-name="Ellipse 15" cx="4" cy="4" r="4" transform="translate(257 12)" fill="#0f0f0f" opacity="0.16"/>
      <circle id="Ellipse_17-43" data-name="Ellipse 17" cx="4" cy="4" r="4" transform="translate(241 12)" fill="#0f0f0f" opacity="0.16"/>
      <circle id="Ellipse_16-43" data-name="Ellipse 16" cx="4" cy="4" r="4" transform="translate(225 12)" fill="#0f0f0f" opacity="0.16"/>
    </g>
    <g transform="translate(-177 72)">
      <circle id="Ellipse_15-44" data-name="Ellipse 15" cx="4" cy="4" r="4" transform="translate(257 12)" fill="#0f0f0f" opacity="0.16"/>
      <circle id="Ellipse_17-44" data-name="Ellipse 17" cx="4" cy="4" r="4" transform="translate(241 12)" fill="#0f0f0f" opacity="0.16"/>
      <circle id="Ellipse_16-44" data-name="Ellipse 16" cx="4" cy="4" r="4" transform="translate(225 12)" fill="#0f0f0f" opacity="0.16"/>
    </g>
    <g transform="translate(-129 72)">
      <circle id="Ellipse_15-45" data-name="Ellipse 15" cx="4" cy="4" r="4" transform="translate(257 12)" fill="#0f0f0f" opacity="0.16"/>
      <circle id="Ellipse_17-45" data-name="Ellipse 17" cx="4" cy="4" r="4" transform="translate(241 12)" fill="#0f0f0f" opacity="0.16"/>
      <circle id="Ellipse_16-45" data-name="Ellipse 16" cx="4" cy="4" r="4" transform="translate(225 12)" fill="#0f0f0f" opacity="0.16"/>
    </g>
    <g transform="translate(-81 72)">
      <circle id="Ellipse_15-46" data-name="Ellipse 15" cx="4" cy="4" r="4" transform="translate(257 12)" fill="#0f0f0f" opacity="0.16"/>
      <circle id="Ellipse_17-46" data-name="Ellipse 17" cx="4" cy="4" r="4" transform="translate(241 12)" fill="#0f0f0f" opacity="0.16"/>
      <circle id="Ellipse_16-46" data-name="Ellipse 16" cx="4" cy="4" r="4" transform="translate(225 12)" fill="#0f0f0f" opacity="0.16"/>
    </g>
    <g transform="translate(-33 72)">
      <circle id="Ellipse_15-47" data-name="Ellipse 15" cx="4" cy="4" r="4" transform="translate(257 12)" fill="#0f0f0f" opacity="0.16"/>
      <circle id="Ellipse_17-47" data-name="Ellipse 17" cx="4" cy="4" r="4" transform="translate(241 12)" fill="#0f0f0f" opacity="0.16"/>
      <circle id="Ellipse_16-47" data-name="Ellipse 16" cx="4" cy="4" r="4" transform="translate(225 12)" fill="#0f0f0f" opacity="0.16"/>
    </g>
    <g transform="translate(15 72)">
      <circle id="Ellipse_15-48" data-name="Ellipse 15" cx="4" cy="4" r="4" transform="translate(257 12)" fill="#0f0f0f" opacity="0.16"/>
      <circle id="Ellipse_17-48" data-name="Ellipse 17" cx="4" cy="4" r="4" transform="translate(241 12)" fill="#0f0f0f" opacity="0.16"/>
      <circle id="Ellipse_16-48" data-name="Ellipse 16" cx="4" cy="4" r="4" transform="translate(225 12)" fill="#0f0f0f" opacity="0.16"/>
    </g>
    <g transform="translate(63 72)">
      <circle id="Ellipse_15-49" data-name="Ellipse 15" cx="4" cy="4" r="4" transform="translate(257 12)" fill="#0f0f0f" opacity="0.16"/>
      <circle id="Ellipse_17-49" data-name="Ellipse 17" cx="4" cy="4" r="4" transform="translate(241 12)" fill="#0f0f0f" opacity="0.16"/>
      <circle id="Ellipse_16-49" data-name="Ellipse 16" cx="4" cy="4" r="4" transform="translate(225 12)" fill="#0f0f0f" opacity="0.16"/>
    </g>
  </g>
</svg>
